<?xml version="1.0" standalone="no"?>
<!DOCTYPE svg PUBLIC "-//W3C//DTD SVG 20010904//EN"
 "http://www.w3.org/TR/2001/REC-SVG-20010904/DTD/svg10.dtd">
<svg version="1.0" xmlns="http://www.w3.org/2000/svg"
 width="260.000000pt" height="260.000000pt" viewBox="0 0 260.000000 260.000000"
 preserveAspectRatio="xMidYMid meet">
<metadata>
Created by potrace 1.11, written by Peter Selinger 2001-2013
</metadata>
<g transform="translate(0.000000,260.000000) scale(0.100000,-0.100000)"
fill="#000000" stroke="none">
<path d="M65 2512 c-3 -3 -5 -554 -5 -1224 l0 -1218 1249 0 1249 0 0 238 1
238 -335 0 c-184 -1 -341 1 -349 4 -8 3 -76 93 -153 200 l-139 195 31 40 c17
22 35 45 41 51 5 6 94 117 196 245 162 204 557 696 592 739 7 8 28 35 47 60
19 25 38 48 43 51 4 3 6 91 5 195 l-3 189 -1233 1 c-678 0 -1235 -2 -1237 -4z
m1013 -475 c3 -8 -71 -93 -229 -262 -122 -132 -178 -192 -207 -225 -31 -35
-31 -35 -32 -10 -4 93 -1 490 3 497 7 10 461 10 465 0z m702 -1 c0 -3 -32 -45
-70 -93 -39 -48 -87 -110 -108 -136 -20 -26 -44 -55 -52 -65 -9 -9 -76 -93
-149 -185 -119 -150 -135 -166 -146 -150 -7 10 -13 23 -13 28 0 6 30 43 67 83
36 41 75 84 86 96 11 12 52 58 92 102 40 44 80 89 90 101 10 11 52 57 93 103
41 46 81 91 88 101 12 18 22 24 22 15z m-895 -1045 c27 -41 27 -46 -6 -86 -9
-11 -74 -91 -143 -178 -141 -177 -128 -174 -128 -29 0 48 5 69 19 85 10 12 55
63 99 112 45 50 89 100 100 113 10 12 21 22 25 22 3 0 19 -18 34 -39z"/>
</g>
</svg>
